<svg xmlns="http://www.w3.org/2000/svg"  viewBox="0 0 132 132" width="260px" height="260px"><g id="_x38_7"><circle cx="66" cy="66" r="64" fill="#ffc536"/><rect width="40.2" height="26.5" x="45.9" y="54.2" fill="#eff2f8"/><path fill="#d4dee8" d="M86.1,54.2V64c-2.3,0-4.6-0.6-6.6-1.7c-2.4,1.1-5,1.7-7.6,1.7c-3.3,0-6.4-0.9-9.2-2.5 c-3.1,1.7-6.5,2.5-10.1,2.5c-2.4,0-4.6-0.4-6.8-1.1v-8.7H86.1z"/><path fill="#eff2f8" d="M98.6,49.6c0,6.8-5.6,12.4-12.4,12.4c-2.5,0-4.7-0.7-6.7-2c-2.3,1.2-4.9,2-7.7,2 c-3.4,0-6.6-1.1-9.2-2.9c-2.9,1.8-6.4,2.9-10.1,2.9c-9.1,0-16.7-6.2-18.7-14.7c-0.4-1.5-0.6-3-0.6-4.6 c0-10.6,8.6-19.3,19.3-19.3c6,0,11.4,2.7,14.9,7c1.4-0.4,2.9-0.6,4.4-0.6c5.7,0,10.7,3,13.5,7.4c0.3,0,0.6,0,0.8,0 c3,0,5.8,1.1,8,2.9C96.9,42.4,98.6,45.8,98.6,49.6z"/><g><path fill="#e1e7ef" d="M87.9,79.8c0,1.2-0.9,2.1-2.1,2.1H45.3c-1.2,0-2.1-0.9-2.1-2.1c0-1.1,0.9-2.1,2.1-2.1h40.5 C87,77.7,87.9,78.6,87.9,79.8z"/></g><g><path fill="#e1e7ef" d="M98.6,49.6c0,6.8-5.6,12.4-12.4,12.4c-2.5,0-4.7-0.7-6.7-2c-2.3,1.2-4.9,2-7.7,2c-3.4,0-6.6-1.1-9.2-2.9 c-2.9,1.8-6.4,2.9-10.1,2.9c-9.1,0-16.7-6.2-18.7-14.7c0.5,0.2,1.1,0.5,1.6,0.7c3,1.6,5.7,3.7,9,4.4c5.3,1.1,10.6-1.9,14.3-5.8 c1.3,2.9,4.5,4.9,7.7,4.8c3.2-0.1,6.3-2.3,7.4-5.3c2.9,4.2,8.8,5.9,13.5,4c3.9-1.6,6.6-5.7,6.8-10 C96.9,42.4,98.6,45.8,98.6,49.6z"/></g><g><path fill="#2a2e33" d="M99.7,97.7c-3,5.9-7.2,9.1-11.7,10.4c-4.2,1.2-8.7,0.2-12.1-2.5l-1.5-1.2l3,3.7 c-5.6-1.5-10.3-5.1-11.8-8.8c-0.1-0.2-0.1-0.4-0.2-0.5c0,0-0.1-0.4-0.3-0.9c-0.2-0.8-0.4-1.9-0.1-3.1c0-0.2,0.1-0.4,0.1-0.6 c0.5-1.8,2-3.6,5.6-4.4c3.1-0.7,6.4-0.1,9.3,1.3l2.2,1.1c-1.2,0-2.2,0.2-3,0.5c5.5,3.3,10.6,9.2,18.5,6 C98.3,98.5,99,98.1,99.7,97.7z"/><path fill="#1e2125" d="M99.7,97.7c-3,5.9-7.2,9.1-11.7,10.4c-4.2,1.2-8.7,0.2-12.1-2.5l-1.5-1.2l3,3.7 c-5.6-1.5-10.3-5.1-11.8-8.8c0.4-0.8,0.9-1.4,1.6-1.9c2.1-1.4,5-0.6,7.1,0.7c2.1,1.4,3.8,3.3,6,4.5c3.5,1.9,7.8,1.8,11.5,0.2 c2.2-1,4.2-2.4,5.9-4.2C98.3,98.5,99,98.1,99.7,97.7z"/><g><path fill="#2a2e33" d="M32.3,97.7c3,5.9,7.2,9.1,11.7,10.4c4.2,1.2,8.7,0.2,12.1-2.5l1.5-1.2l-3,3.7c5.6-1.5,10.3-5.1,11.8-8.8 c0.1-0.2,0.1-0.4,0.2-0.5c0,0,0.1-0.4,0.3-0.9c0.2-0.8,0.4-1.9,0.1-3.1c0-0.2-0.1-0.4-0.1-0.6c-0.5-1.8-2-3.6-5.6-4.4 c-3.1-0.7-6.4-0.1-9.3,1.3l-2.2,1.1c1.2,0,2.2,0.2,3,0.5c-5.5,3.3-10.6,9.2-18.5,6C33.7,98.5,33,98.1,32.3,97.7z"/><path fill="#1e2125" d="M32.3,97.7c3,5.9,7.2,9.1,11.7,10.4c4.2,1.2,8.7,0.2,12.1-2.5l1.5-1.2l-3,3.7c5.6-1.5,10.3-5.1,11.8-8.8 c-0.4-0.8-0.9-1.4-1.6-1.9c-2.1-1.4-5-0.6-7.1,0.7c-2.1,1.4-3.8,3.3-6,4.5c-3.5,1.9-7.8,1.8-11.5,0.2c-2.2-1-4.2-2.4-5.9-4.2 C33.7,98.5,33,98.1,32.3,97.7z"/></g></g></g></svg>