<?xml version="1.0" encoding="UTF-8" standalone="no"?>
<svg
   fill="#000000"
   viewBox="0 0 80 80"
   width="480px"
   height="480px"
   version="1.1"
   id="svg4"
   sodipodi:docname="portfolio-icon-white.svg"
   inkscape:version="1.1.2 (b8e25be833, 2022-02-05)"
   xmlns:inkscape="http://www.inkscape.org/namespaces/inkscape"
   xmlns:sodipodi="http://sodipodi.sourceforge.net/DTD/sodipodi-0.dtd"
   xmlns="http://www.w3.org/2000/svg"
   xmlns:svg="http://www.w3.org/2000/svg">
  <defs
     id="defs8" />
  <sodipodi:namedview
     id="namedview6"
     pagecolor="#505050"
     bordercolor="#eeeeee"
     borderopacity="1"
     inkscape:pageshadow="0"
     inkscape:pageopacity="0"
     inkscape:pagecheckerboard="0"
     showgrid="false"
     inkscape:zoom="1.81875"
     inkscape:cx="240"
     inkscape:cy="240.27491"
     inkscape:window-width="2560"
     inkscape:window-height="1369"
     inkscape:window-x="-8"
     inkscape:window-y="-8"
     inkscape:window-maximized="1"
     inkscape:current-layer="svg4" />
  <path
     d="M 11 13 C 8.8026661 13 7 14.802666 7 17 L 7 67 L 8 67 L 73 67 L 73 17 C 73 14.802666 71.197334 13 69 13 L 11 13 z M 11 15 L 69 15 C 70.116666 15 71 15.883334 71 17 L 71 29 L 9 29 L 9 17 C 9 15.883334 9.8833339 15 11 15 z M 16 18 C 13.802706 18 12 19.802706 12 22 C 12 24.197294 13.802706 26 16 26 C 17.197129 26 18.264839 25.453799 19 24.611328 C 19.735161 25.453799 20.802871 26 22 26 C 24.197294 26 26 24.197294 26 22 C 26 19.802706 24.197294 18 22 18 C 20.802871 18 19.735161 18.546201 19 19.388672 C 18.264839 18.546201 17.197129 18 16 18 z M 29 18 L 29 19 L 29 26 L 68 26 L 68 18 L 29 18 z M 16 20 C 17.116414 20 18 20.883586 18 22 C 18 23.116414 17.116414 24 16 24 C 14.883586 24 14 23.116414 14 22 C 14 20.883586 14.883586 20 16 20 z M 22 20 C 23.116414 20 24 20.883586 24 22 C 24 23.116414 23.116414 24 22 24 C 20.883586 24 20 23.116414 20 22 C 20 20.883586 20.883586 20 22 20 z M 31 20 L 66 20 L 66 24 L 31 24 L 31 20 z M 9 31 L 71 31 L 71 65 L 9 65 L 9 31 z M 25.5 36 C 22.473909 36 20 38.473909 20 41.5 C 20 43.210121 20.790107 44.74332 22.023438 45.753906 C 19.067946 47.087169 17 50.055579 17 53.5 L 17 54 L 19 54 L 19 53.5 C 19 49.897188 21.897188 47 25.5 47 C 29.102812 47 32 49.897188 32 53.5 L 32 54 L 34 54 L 34 53.5 C 34 50.055579 31.932055 47.087169 28.976562 45.753906 C 30.209893 44.74332 31 43.210121 31 41.5 L 31 40.5 L 30.796875 40.5 C 30.308918 37.96531 28.172019 36 25.5 36 z M 40 37 L 40 39 L 63 39 L 63 37 L 40 37 z M 25.5 38 C 27.445909 38 29 39.554091 29 41.5 C 29 43.445909 27.445909 45 25.5 45 C 23.554091 45 22 43.445909 22 41.5 C 22 39.554091 23.554091 38 25.5 38 z M 40 42 L 40 44 L 59 44 L 59 42 L 40 42 z M 40 47 L 40 49 L 63 49 L 63 47 L 40 47 z M 40 52 L 40 54 L 59 54 L 59 52 L 40 52 z M 14 59 C 13.449 59 13 59.449 13 60 C 13 60.551 13.449 61 14 61 C 14.551 61 15 60.551 15 60 C 15 59.449 14.551 59 14 59 z M 18 59 C 17.449 59 17 59.449 17 60 C 17 60.551 17.449 61 18 61 C 18.551 61 19 60.551 19 60 C 19 59.449 18.551 59 18 59 z M 22 59 C 21.449 59 21 59.449 21 60 C 21 60.551 21.449 61 22 61 C 22.551 61 23 60.551 23 60 C 23 59.449 22.551 59 22 59 z M 26 59 C 25.449 59 25 59.449 25 60 C 25 60.551 25.449 61 26 61 C 26.551 61 27 60.551 27 60 C 27 59.449 26.551 59 26 59 z M 30 59 C 29.449 59 29 59.449 29 60 C 29 60.551 29.449 61 30 61 C 30.551 61 31 60.551 31 60 C 31 59.449 30.551 59 30 59 z M 34 59 C 33.449 59 33 59.449 33 60 C 33 60.551 33.449 61 34 61 C 34.551 61 35 60.551 35 60 C 35 59.449 34.551 59 34 59 z M 38 59 C 37.449 59 37 59.449 37 60 C 37 60.551 37.449 61 38 61 C 38.551 61 39 60.551 39 60 C 39 59.449 38.551 59 38 59 z M 42 59 C 41.449 59 41 59.449 41 60 C 41 60.551 41.449 61 42 61 C 42.551 61 43 60.551 43 60 C 43 59.449 42.551 59 42 59 z M 46 59 C 45.449 59 45 59.449 45 60 C 45 60.551 45.449 61 46 61 C 46.551 61 47 60.551 47 60 C 47 59.449 46.551 59 46 59 z M 50 59 C 49.449 59 49 59.449 49 60 C 49 60.551 49.449 61 50 61 C 50.551 61 51 60.551 51 60 C 51 59.449 50.551 59 50 59 z M 54 59 C 53.449 59 53 59.449 53 60 C 53 60.551 53.449 61 54 61 C 54.551 61 55 60.551 55 60 C 55 59.449 54.551 59 54 59 z M 58 59 C 57.449 59 57 59.449 57 60 C 57 60.551 57.449 61 58 61 C 58.551 61 59 60.551 59 60 C 59 59.449 58.551 59 58 59 z M 62 59 C 61.449 59 61 59.449 61 60 C 61 60.551 61.449 61 62 61 C 62.551 61 63 60.551 63 60 C 63 59.449 62.551 59 62 59 z M 66 59 C 65.449 59 65 59.449 65 60 C 65 60.551 65.449 61 66 61 C 66.551 61 67 60.551 67 60 C 67 59.449 66.551 59 66 59 z"
     id="path2" />
  <path
     style="fill:#ffffff;stroke-width:0.549828"
     d="m 42.066009,251.95876 c 0.0028,-101.23943 0.190068,-151.11146 0.576346,-153.49216 0.82647,-5.093697 2.950986,-9.1561 6.802692,-13.007807 3.736794,-3.736794 7.724062,-5.874659 12.649061,-6.782082 4.619107,-0.851064 351.192672,-0.851064 355.811782,0 4.925,0.907423 8.91227,3.045288 12.64906,6.782082 3.85171,3.851707 5.97622,7.91411 6.8027,13.007807 0.38627,2.3807 0.57354,52.25273 0.57634,153.49216 l 0.004,149.96564 H 240 42.061856 Z M 426.39175,288.10997 V 185.84192 H 240 53.608247 V 288.10997 390.37801 H 240 426.39175 Z m 0,-150.40945 c 0,-26.20255 -0.18342,-37.32344 -0.64588,-39.160035 -0.88695,-3.522406 -4.7502,-7.38566 -8.27261,-8.272612 -3.70583,-0.933139 -351.240688,-0.933139 -354.946521,0 -3.522406,0.886952 -7.38566,4.750206 -8.272612,8.272612 -0.462459,1.836595 -0.64588,12.957485 -0.64588,39.160035 v 36.59501 H 240 426.39175 Z"
     id="path47"
     transform="scale(0.16666667)" />
  <path
     style="fill:#ffffff;stroke-width:0.549828"
     d="M 89.064986,154.64372 C 78.326433,150.80826 71.649453,141.14605 72.457749,130.61152 73.974762,110.84028 96.74262,101.36424 111.49059,114.36595 l 2.62461,2.31384 2.50001,-2.30442 c 7.2141,-6.64973 18.66729,-7.88303 27.13308,-2.92174 8.30258,4.86563 13.1926,15.03998 11.60639,24.14867 -2.01705,11.58274 -11.89457,19.99907 -23.47118,19.99907 -5.81161,0 -12.74267,-2.95977 -16.55191,-7.06818 l -1.23199,-1.32875 -2.51805,2.32107 c -1.38494,1.27659 -4.17075,3.09492 -6.1907,4.04075 -3.1013,1.45216 -4.44245,1.7463 -8.621091,1.8908 -3.706305,0.12817 -5.640338,-0.076 -7.704773,-0.81334 z m 11.708684,-11.44265 c 4.55009,-1.90068 7.27454,-6.06234 7.25549,-11.08295 -0.0273,-7.21132 -5.00105,-12.25558 -12.084143,-12.25558 -6.95324,0 -12.055374,5.05665 -12.084144,11.97643 -0.02934,7.05786 4.987258,12.17493 11.964347,12.20394 1.597342,0.007 3.824146,-0.37219 4.94845,-0.84184 z m 38.16075,-1.10384 c 5.75458,-4.04026 6.94791,-11.81066 2.71186,-17.65835 -1.9645,-2.71192 -4.87839,-4.15957 -8.99745,-4.47003 -10.13962,-0.76423 -16.43544,10.46696 -10.65594,19.00928 2.55379,3.7746 5.61924,5.21 10.61851,4.97211 3.33793,-0.15884 4.31987,-0.4466 6.32302,-1.85301 z"
     id="path86"
     transform="scale(0.16666667)" />
  <path
     style="fill:#ffffff;stroke-width:0.549828"
     d="m 174.02062,131.95876 v -23.64261 h 116.83849 116.83848 v 23.64261 23.64261 H 290.85911 174.02062 Z m 222.13058,0 V 119.86254 H 290.85911 185.56701 v 12.09622 12.09622 h 105.2921 105.29209 z"
     id="path125"
     transform="scale(0.16666667)" />
  <path
     style="fill:#ffffff;stroke-width:0.549828"
     d="m 102.34749,319.0378 c 0.37826,-6.04908 1.9025,-12.78659 4.01674,-17.755 4.3967,-10.33208 13.27869,-20.02875 22.70428,-24.78677 3.41825,-1.72553 3.73175,-2.2224 2.11617,-3.35399 -1.82899,-1.28107 -5.57039,-6.09094 -7.17538,-9.22451 -4.95124,-9.6668 -4.93646,-19.55503 0.0443,-29.65655 3.95113,-8.01326 11.50301,-14.20265 20.55117,-16.84337 4.42981,-1.29285 12.16123,-1.29998 16.49485,-0.0152 10.76416,3.19119 19.47862,11.87739 22.53319,22.46015 0.5019,1.73883 1.1424,3.16151 1.42335,3.16151 0.81505,0 0.5748,9.83139 -0.33452,13.68902 -1.13991,4.83588 -4.17283,10.36985 -7.93446,14.47751 l -3.15808,3.4486 4.18199,2.34817 c 15.52857,8.71924 25.87508,26.06927 25.89606,43.42502 l 0.004,3.43643 h -5.69325 -5.69324 l -0.29545,-5.36181 c -1.44154,-26.16082 -27.79506,-43.32863 -52.6099,-34.27234 -14.4371,5.26889 -23.77978,17.62499 -25.4894,33.71084 l -0.62954,5.92331 h -5.62695 -5.62695 z m 57.31707,-49.93494 c 5.68274,-1.81849 10.06525,-5.69282 12.63225,-11.16746 1.27755,-2.72461 1.44889,-3.7738 1.44889,-8.8718 0,-5.42002 -0.11263,-6.01075 -1.80019,-9.44149 -7.82262,-15.90299 -30.61438,-15.71053 -38.11684,0.32186 -5.97866,12.7761 2.07214,28.08211 15.73923,29.92311 3.86278,0.52033 6.77017,0.30027 10.09666,-0.76422 z"
     id="path164"
     transform="scale(0.16666667)" />
  <path
     style="fill:#ffffff;stroke-width:0.549828"
     d="m 240,227.90378 v -5.7732 h 69.00344 69.00343 v 5.7732 5.7732 H 309.00344 240 Z"
     id="path203"
     transform="scale(0.16666667)" />
  <path
     style="fill:#ffffff;stroke-width:0.549828"
     d="m 240,258.14433 v -5.7732 h 56.90722 56.90721 v 5.7732 5.7732 H 296.90722 240 Z"
     id="path242"
     transform="scale(0.16666667)" />
  <path
     style="fill:#ffffff;stroke-width:0.549828"
     d="m 240,287.83505 v -5.77319 h 69.00344 69.00343 v 5.77319 5.7732 H 309.00344 240 Z"
     id="path281"
     transform="scale(0.16666667)" />
  <path
     style="fill:#ffffff;stroke-width:0.549828"
     d="m 240,318.0756 v -5.77319 h 56.90722 56.90721 v 5.77319 5.7732 H 296.90722 240 Z"
     id="path320"
     transform="scale(0.16666667)" />
  <path
     style="fill:#ffffff;stroke-width:0.549828"
     d="m 80.219931,363.76632 c -3.207856,-3.20785 -2.106924,-7.68781 2.241958,-9.12307 2.575917,-0.85013 5.357178,0.45693 6.615699,3.10907 1.131192,2.38381 0.737485,4.20104 -1.365857,6.30439 -2.294684,2.29468 -5.012058,2.18935 -7.4918,-0.29039 z"
     id="path359"
     transform="scale(0.16666667)" />
  <path
     style="fill:#ffffff;stroke-width:0.549828"
     d="m 104.15015,364.02855 c -4.289535,-4.28953 0.71113,-11.89619 6.01689,-9.15247 5.71974,2.95779 3.77517,10.75966 -2.68178,10.75966 -1.17671,0 -2.24063,-0.5127 -3.33511,-1.60719 z"
     id="path398"
     transform="scale(0.16666667)" />
  <path
     style="fill:#ffffff;stroke-width:0.549828"
     d="m 128.44576,364.22802 c -3.29323,-2.77106 -2.55435,-7.7332 1.39736,-9.38432 2.59679,-1.08501 5.37661,-0.19407 6.82968,2.18893 1.5957,2.61691 1.36168,4.56176 -0.81026,6.73369 -2.37357,2.37358 -4.95376,2.5342 -7.41678,0.4617 z"
     id="path437"
     transform="scale(0.16666667)" />
  <path
     style="fill:#ffffff;stroke-width:0.549828"
     d="m 153.18767,364.86845 c -3.11891,-1.72868 -3.74233,-6.08223 -1.23063,-8.59393 0.86847,-0.86846 2.20832,-1.73697 2.97745,-1.93001 2.08153,-0.52243 5.08946,1.1295 6.15841,3.38214 2.29955,4.84593 -3.15564,9.7743 -7.90523,7.1418 z"
     id="path476"
     transform="scale(0.16666667)" />
  <path
     style="fill:#ffffff;stroke-width:0.549828"
     d="m 176.17764,364.02855 c -3.17859,-3.17859 -1.56152,-8.70822 2.82857,-9.67245 3.15632,-0.69324 6.57034,2.31293 6.54857,5.76624 -0.0306,4.85833 -5.9565,7.32686 -9.37714,3.90621 z"
     id="path515"
     transform="scale(0.16666667)" />
  <path
     style="fill:#ffffff;stroke-width:0.549828"
     d="m 200.47325,364.22802 c -3.29323,-2.77106 -2.55435,-7.7332 1.39736,-9.38432 5.86171,-2.44918 10.44088,5.00611 5.69995,9.28001 -2.19864,1.98205 -4.81996,2.02057 -7.09731,0.10431 z"
     id="path554"
     transform="scale(0.16666667)" />
  <path
     style="fill:#ffffff;stroke-width:0.549828"
     d="m 225.21516,364.86845 c -2.64391,-1.46541 -3.63945,-5.50093 -1.95154,-7.91076 2.15763,-3.08045 6.07263,-3.48523 8.66225,-0.89561 1.70226,1.70226 2.13194,3.85719 1.20936,6.06523 -1.33918,3.20511 -4.87504,4.42887 -7.92007,2.74114 z"
     id="path593"
     transform="scale(0.16666667)" />
  <path
     style="fill:#ffffff;stroke-width:0.549828"
     d="m 248.86151,364.73914 c -0.70404,-0.49313 -1.60258,-1.66845 -1.99674,-2.61183 -1.94725,-4.66041 2.97877,-9.51544 7.35725,-7.25123 3.13664,1.62201 4.16752,4.56438 2.71561,7.75097 -1.25706,2.75895 -5.54979,3.88159 -8.07612,2.11209 z"
     id="path632"
     transform="scale(0.16666667)" />
  <path
     style="fill:#ffffff;stroke-width:0.549828"
     d="m 272.50074,364.22802 c -3.29322,-2.77106 -2.55435,-7.7332 1.39736,-9.38432 5.86171,-2.44918 10.44089,5.00611 5.69995,9.28001 -2.19863,1.98205 -4.81996,2.02057 -7.09731,0.10431 z"
     id="path710"
     transform="scale(0.16666667)" />
  <path
     style="fill:#ffffff;stroke-width:0.549828"
     d="m 297.45704,364.99756 c -1.87363,-1.03037 -2.99907,-2.85211 -3.01182,-4.87522 -0.0147,-2.32318 1.11341,-4.08438 3.36025,-5.24626 5.39891,-2.79189 10.38173,4.78763 6.01689,9.15247 -1.72445,1.72445 -4.28328,2.11399 -6.36532,0.96901 z"
     id="path749"
     transform="scale(0.16666667)" />
  <path
     style="fill:#ffffff;stroke-width:0.549828"
     d="m 320.66378,364.52748 c -0.7749,-0.60953 -1.69033,-1.96094 -2.03428,-3.00311 -0.85013,-2.57592 0.45694,-5.35718 3.10907,-6.6157 2.38381,-1.1312 4.20105,-0.73749 6.30439,1.36585 4.70736,4.70737 -2.1445,12.37057 -7.37918,8.25296 z"
     id="path788"
     transform="scale(0.16666667)" />
  <path
     style="fill:#ffffff;stroke-width:0.549828"
     d="m 344.13746,363.76632 c -2.17194,-2.17193 -2.40596,-4.11678 -0.81026,-6.73369 1.45307,-2.383 4.23289,-3.27394 6.82968,-2.18893 3.95171,1.65112 4.69059,6.61326 1.39736,9.38432 -2.46302,2.0725 -5.04321,1.91188 -7.41678,-0.4617 z"
     id="path827"
     transform="scale(0.16666667)" />
  <path
     style="fill:#ffffff;stroke-width:0.549828"
     d="m 369.08599,364.77867 c -1.86601,-1.01265 -2.62551,-2.38892 -2.62551,-4.75764 0,-2.23196 1.15922,-4.00044 3.37248,-5.14495 5.30576,-2.74372 10.30642,4.86294 6.01689,9.15247 -1.82389,1.8239 -4.28272,2.09658 -6.76386,0.75012 z"
     id="path866"
     transform="scale(0.16666667)" />
  <path
     style="fill:#ffffff;stroke-width:0.549828"
     d="m 392.28827,364.05671 c -2.10334,-2.10335 -2.49705,-3.92058 -1.36586,-6.30439 1.25852,-2.65214 4.03978,-3.9592 6.6157,-3.10907 4.34888,1.43526 5.44981,5.91522 2.24196,9.12307 -2.47974,2.47974 -5.19712,2.58507 -7.4918,0.29039 z"
     id="path905"
     transform="scale(0.16666667)" />
</svg>
