<?xml version="1.0" encoding="UTF-8" standalone="no"?>
<svg
   fill="#000000"
   viewBox="0 0 50 50"
   width="500px"
   height="500px"
   version="1.1"
   id="svg4"
   sodipodi:docname="website-logo.svg"
   inkscape:version="1.1.2 (b8e25be833, 2022-02-05)"
   xmlns:inkscape="http://www.inkscape.org/namespaces/inkscape"
   xmlns:sodipodi="http://sodipodi.sourceforge.net/DTD/sodipodi-0.dtd"
   xmlns="http://www.w3.org/2000/svg"
   xmlns:svg="http://www.w3.org/2000/svg">
  <defs
     id="defs8" />
  <sodipodi:namedview
     id="namedview6"
     pagecolor="#505050"
     bordercolor="#eeeeee"
     borderopacity="1"
     inkscape:pageshadow="0"
     inkscape:pageopacity="0"
     inkscape:pagecheckerboard="0"
     showgrid="false"
     inkscape:zoom="1.746"
     inkscape:cx="250"
     inkscape:cy="250.28637"
     inkscape:window-width="2560"
     inkscape:window-height="1369"
     inkscape:window-x="-8"
     inkscape:window-y="-8"
     inkscape:window-maximized="1"
     inkscape:current-layer="svg4" />
  <path
     d="M 4.8457031 6 C 3.2714548 6 2 7.3206244 2 8.8925781 L 2 43 A 1.0001 1.0001 0 0 0 3 44 L 47 44 A 1.0001 1.0001 0 0 0 48 43 L 48 8.8925781 C 48 7.3206244 46.728545 6 45.154297 6 L 4.8457031 6 z M 4.8457031 8 L 45.154297 8 C 45.620049 8 46 8.3745319 46 8.8925781 L 46 18 L 4 18 L 4 8.8925781 C 4 8.3745319 4.3799515 8 4.8457031 8 z M 19 10 L 19 11 L 19 16 L 43 16 L 43 10 L 19 10 z M 8 11 A 2 2 0 0 0 6 13 A 2 2 0 0 0 8 15 A 2 2 0 0 0 10 13 A 2 2 0 0 0 8 11 z M 14 11 A 2 2 0 0 0 12 13 A 2 2 0 0 0 14 15 A 2 2 0 0 0 16 13 A 2 2 0 0 0 14 11 z M 21 12 L 41 12 L 41 14 L 21 14 L 21 12 z M 4 20 L 46 20 L 46 42 L 4 42 L 4 20 z M 13.970703 24 C 12.279703 24 11.37075 24.87 11.09375 26.125 C 11.03275 26.4 11.002 26.693 11 27 C 10.997 27.508 11.102188 28.052375 11.242188 28.609375 C 11.133188 28.677375 10.955 28.89425 11 29.28125 C 11.084 30.00125 11.370781 30.183219 11.550781 30.199219 C 11.620781 30.870219 12.255328 31.667016 12.486328 31.791016 C 12.486328 32.270016 12.503031 32.635156 12.457031 33.160156 C 11.904031 34.694156 8.172 34.264656 8 37.222656 L 8 38 L 20 38 L 20 37.222656 C 19.828 34.264656 16.111594 34.694156 15.558594 33.160156 C 15.512594 32.635156 15.529297 32.270016 15.529297 31.791016 C 15.760297 31.666016 16.379219 30.870219 16.449219 30.199219 C 16.631219 30.183219 16.917953 30.00125 17.001953 29.28125 C 17.046953 28.89425 16.866812 28.678375 16.757812 28.609375 C 16.867812 28.265375 17 27.649 17 27 C 17 26.702 16.979828 26.405 16.923828 26.125 C 16.768828 25.348 16.353969 24.706266 15.417969 24.572266 C 15.207969 24.191266 14.668703 24 13.970703 24 z M 26 26 L 26 28 L 27 28 L 41 28 L 42 28 L 42 26 L 41 26 L 27 26 L 26 26 z M 26 31 L 26 33 L 27 33 L 41 33 L 42 33 L 42 31 L 41 31 L 27 31 L 26 31 z M 26 36 L 26 38 L 27 38 L 38 38 L 39 38 L 39 36 L 38 36 L 27 36 L 26 36 z"
     id="path2" />
  <path
     style="fill:#ffffff;stroke-width:0.572738"
     d="m 26.345934,438.78005 c -2.650416,-1.22325 -4.534151,-3.10532 -5.402857,-5.39809 -0.42779,-1.12906 -0.610889,-53.49359 -0.610889,-174.70785 0,-189.535348 -0.250209,-175.653584 3.297754,-182.961892 2.109899,-4.346096 7.557158,-9.814829 12.017098,-12.064472 7.476133,-3.771043 -9.555589,-3.492513 214.1316,-3.501823 135.24829,-0.0056 204.42044,0.186328 206.47194,0.572973 10.77098,2.030009 19.68997,10.54975 22.55361,21.544023 0.76045,2.919559 0.86362,23.994241 0.86362,176.411191 0,121.21426 -0.1831,173.57879 -0.61089,174.70785 -0.8687,2.29277 -2.75244,4.17484 -5.40285,5.39809 -2.21479,1.02218 -9.65056,1.05734 -223.65407,1.05734 -214.003513,0 -221.439282,-0.0352 -223.654066,-1.05734 z M 460.19473,310.13746 V 199.88545 H 250 39.805269 v 110.25201 110.252 H 250 460.19473 Z m 0,-176.50875 c 0,-46.068101 -0.018,-46.820945 -1.1799,-49.221016 -0.85665,-1.769597 -1.84766,-2.760607 -3.61725,-3.617254 l -2.43736,-1.179902 H 250 47.039776 l -2.437352,1.179902 c -1.769596,0.856647 -2.760606,1.847657 -3.617253,3.617254 -1.161855,2.400071 -1.179902,3.152915 -1.179902,49.221016 v 46.78366 H 250 460.19473 Z"
     id="path47"
     transform="scale(0.1)" />
  <path
     style="fill:#ffffff;stroke-width:0.572738"
     d="m 73.527358,148.53019 c -5.63173,-1.88025 -10.995213,-7.68621 -12.610154,-13.65046 -1.10796,-4.09189 -0.355428,-9.90594 1.807379,-13.96378 3.495834,-6.55885 8.88838,-9.95638 16.313218,-10.278 5.752969,-0.2492 9.909501,1.17092 13.882689,4.74315 13.42554,12.07071 5.032503,34.23295 -12.901883,34.0681 -2.114472,-0.0194 -5.035534,-0.43299 -6.491249,-0.91901 z"
     id="path86"
     transform="scale(0.1)" />
  <path
     style="fill:#ffffff;stroke-width:0.572738"
     d="m 132.59504,148.24558 c -4.36747,-1.71459 -9.1552,-6.5743 -10.79514,-10.95743 -1.66352,-4.44616 -1.66352,-10.10723 0,-14.55339 1.69184,-4.52184 6.43593,-9.26593 10.95777,-10.95777 7.3434,-2.74752 15.49824,-1.11735 20.74662,4.14729 4.50178,4.51572 5.71679,7.50971 5.71679,14.08717 0,4.61973 -0.21243,5.87327 -1.40735,8.3047 -1.79948,3.66159 -5.81717,7.67802 -9.47467,9.4717 -4.06242,1.99227 -11.29925,2.20266 -15.74402,0.45773 z"
     id="path125"
     transform="scale(0.1)" />
  <path
     style="fill:#ffffff;stroke-width:0.572738"
     d="M 190.43528,130.01145 V 100.2291 h 119.70218 119.70217 v 29.78235 29.78236 H 310.13746 190.43528 Z m 219.93127,0 V 119.70218 H 310.13746 209.90836 v 10.30927 10.30928 h 100.2291 100.22909 z"
     id="path164"
     transform="scale(0.1)" />
  <path
     style="fill:#ffffff;stroke-width:0.572738"
     d="m 80.469645,374.34441 c 0,-6.69481 1.377192,-11.4844 4.593811,-15.97636 3.775463,-5.27237 9.158206,-8.65181 23.470334,-14.73532 14.99168,-6.37235 16.60939,-8.25238 16.60939,-19.30262 0,-6.00082 -0.12097,-6.83344 -1.07989,-7.4323 -1.8053,-1.12743 -6.76073,-9.05732 -7.52608,-12.04357 -0.51422,-2.0064 -1.15583,-3.05738 -2.24976,-3.68521 -1.96465,-1.12756 -3.46883,-4.32111 -3.87111,-8.2188 -0.25781,-2.49791 -0.0861,-3.46939 0.91256,-5.16193 1.22098,-2.06941 1.2227,-2.11972 0.23139,-6.76364 -1.49634,-7.0098 -1.37354,-16.72157 0.27794,-21.98132 1.79193,-5.7071 5.34524,-10.7052 9.75707,-13.72436 4.8696,-3.33243 8.25995,-4.28292 16.43448,-4.60744 6.05373,-0.24032 7.26252,-0.12585 10.14233,0.96046 1.83528,0.6923 3.89177,1.97285 4.68811,2.91925 0.78025,0.92727 1.8863,1.68847 2.4579,1.69155 1.82027,0.01 6.70255,2.65018 8.59703,4.64935 5.55365,5.86054 7.26785,17.98868 4.39224,31.07551 -0.92518,4.21046 -0.92059,4.4039 0.13225,5.57023 2.46996,2.73623 0.51417,12.22234 -2.8345,13.7481 -0.87485,0.3986 -1.53481,1.46616 -2.01403,3.25789 -0.9417,3.52093 -3.68377,8.23779 -6.50403,11.18812 l -2.27868,2.38378 0.22376,6.89555 c 0.19113,5.88983 0.4098,7.19656 1.49931,8.95942 2.16241,3.49887 6.44179,6.13739 17.09104,10.53776 14.67212,6.06266 20.25333,10.40765 23.97966,18.66824 1.40233,3.1087 1.66969,4.53445 1.88741,10.06504 l 0.25364,6.4433 H 140.10644 80.469645 Z"
     id="path203"
     transform="scale(0.1)" />
  <path
     style="fill:#ffffff;stroke-width:0.572738"
     d="m 260.30928,269.75945 v -9.73654 h 79.61054 79.61054 v 9.73654 9.73654 h -79.61054 -79.61054 z"
     id="path242"
     transform="scale(0.1)" />
  <path
     style="fill:#ffffff;stroke-width:0.572738"
     d="m 260.30928,320.16037 v -9.73654 h 79.61054 79.61054 v 9.73654 9.73654 h -79.61054 -79.61054 z"
     id="path281"
     transform="scale(0.1)" />
  <path
     style="fill:#ffffff;stroke-width:0.572738"
     d="M 260.30928,369.98855 V 360.252 h 64.71936 64.71936 v 9.73655 9.73654 h -64.71936 -64.71936 z"
     id="path320"
     transform="scale(0.1)" />
</svg>
