<svg fill="#000000" xmlns="http://www.w3.org/2000/svg"  viewBox="0 0 80 80" width="480px" height="480px"><path d="M 11 13 C 8.8026661 13 7 14.802666 7 17 L 7 67 L 8 67 L 73 67 L 73 17 C 73 14.802666 71.197334 13 69 13 L 11 13 z M 11 15 L 69 15 C 70.116666 15 71 15.883334 71 17 L 71 29 L 9 29 L 9 17 C 9 15.883334 9.8833339 15 11 15 z M 16 18 C 13.802706 18 12 19.802706 12 22 C 12 24.197294 13.802706 26 16 26 C 17.197129 26 18.264839 25.453799 19 24.611328 C 19.735161 25.453799 20.802871 26 22 26 C 24.197294 26 26 24.197294 26 22 C 26 19.802706 24.197294 18 22 18 C 20.802871 18 19.735161 18.546201 19 19.388672 C 18.264839 18.546201 17.197129 18 16 18 z M 29 18 L 29 19 L 29 26 L 68 26 L 68 18 L 29 18 z M 16 20 C 17.116414 20 18 20.883586 18 22 C 18 23.116414 17.116414 24 16 24 C 14.883586 24 14 23.116414 14 22 C 14 20.883586 14.883586 20 16 20 z M 22 20 C 23.116414 20 24 20.883586 24 22 C 24 23.116414 23.116414 24 22 24 C 20.883586 24 20 23.116414 20 22 C 20 20.883586 20.883586 20 22 20 z M 31 20 L 66 20 L 66 24 L 31 24 L 31 20 z M 9 31 L 71 31 L 71 65 L 9 65 L 9 31 z M 25.5 36 C 22.473909 36 20 38.473909 20 41.5 C 20 43.210121 20.790107 44.74332 22.023438 45.753906 C 19.067946 47.087169 17 50.055579 17 53.5 L 17 54 L 19 54 L 19 53.5 C 19 49.897188 21.897188 47 25.5 47 C 29.102812 47 32 49.897188 32 53.5 L 32 54 L 34 54 L 34 53.5 C 34 50.055579 31.932055 47.087169 28.976562 45.753906 C 30.209893 44.74332 31 43.210121 31 41.5 L 31 40.5 L 30.796875 40.5 C 30.308918 37.96531 28.172019 36 25.5 36 z M 40 37 L 40 39 L 63 39 L 63 37 L 40 37 z M 25.5 38 C 27.445909 38 29 39.554091 29 41.5 C 29 43.445909 27.445909 45 25.5 45 C 23.554091 45 22 43.445909 22 41.5 C 22 39.554091 23.554091 38 25.5 38 z M 40 42 L 40 44 L 59 44 L 59 42 L 40 42 z M 40 47 L 40 49 L 63 49 L 63 47 L 40 47 z M 40 52 L 40 54 L 59 54 L 59 52 L 40 52 z M 14 59 C 13.449 59 13 59.449 13 60 C 13 60.551 13.449 61 14 61 C 14.551 61 15 60.551 15 60 C 15 59.449 14.551 59 14 59 z M 18 59 C 17.449 59 17 59.449 17 60 C 17 60.551 17.449 61 18 61 C 18.551 61 19 60.551 19 60 C 19 59.449 18.551 59 18 59 z M 22 59 C 21.449 59 21 59.449 21 60 C 21 60.551 21.449 61 22 61 C 22.551 61 23 60.551 23 60 C 23 59.449 22.551 59 22 59 z M 26 59 C 25.449 59 25 59.449 25 60 C 25 60.551 25.449 61 26 61 C 26.551 61 27 60.551 27 60 C 27 59.449 26.551 59 26 59 z M 30 59 C 29.449 59 29 59.449 29 60 C 29 60.551 29.449 61 30 61 C 30.551 61 31 60.551 31 60 C 31 59.449 30.551 59 30 59 z M 34 59 C 33.449 59 33 59.449 33 60 C 33 60.551 33.449 61 34 61 C 34.551 61 35 60.551 35 60 C 35 59.449 34.551 59 34 59 z M 38 59 C 37.449 59 37 59.449 37 60 C 37 60.551 37.449 61 38 61 C 38.551 61 39 60.551 39 60 C 39 59.449 38.551 59 38 59 z M 42 59 C 41.449 59 41 59.449 41 60 C 41 60.551 41.449 61 42 61 C 42.551 61 43 60.551 43 60 C 43 59.449 42.551 59 42 59 z M 46 59 C 45.449 59 45 59.449 45 60 C 45 60.551 45.449 61 46 61 C 46.551 61 47 60.551 47 60 C 47 59.449 46.551 59 46 59 z M 50 59 C 49.449 59 49 59.449 49 60 C 49 60.551 49.449 61 50 61 C 50.551 61 51 60.551 51 60 C 51 59.449 50.551 59 50 59 z M 54 59 C 53.449 59 53 59.449 53 60 C 53 60.551 53.449 61 54 61 C 54.551 61 55 60.551 55 60 C 55 59.449 54.551 59 54 59 z M 58 59 C 57.449 59 57 59.449 57 60 C 57 60.551 57.449 61 58 61 C 58.551 61 59 60.551 59 60 C 59 59.449 58.551 59 58 59 z M 62 59 C 61.449 59 61 59.449 61 60 C 61 60.551 61.449 61 62 61 C 62.551 61 63 60.551 63 60 C 63 59.449 62.551 59 62 59 z M 66 59 C 65.449 59 65 59.449 65 60 C 65 60.551 65.449 61 66 61 C 66.551 61 67 60.551 67 60 C 67 59.449 66.551 59 66 59 z"/></svg>